<mxfile host="Electron" agent="Mozilla/5.0 (Windows NT 10.0; Win64; x64) AppleWebKit/537.36 (KHTML, like Gecko) draw.io/24.7.17 Chrome/128.0.6613.36 Electron/32.0.1 Safari/537.36" version="24.7.17">
  <diagram name="Página-1" id="1ei3XP8haHvfFZyDWD4f">
    <mxGraphModel dx="1551" dy="1603" grid="1" gridSize="10" guides="1" tooltips="1" connect="1" arrows="1" fold="1" page="1" pageScale="1" pageWidth="827" pageHeight="1169" math="0" shadow="0">
      <root>
        <mxCell id="0" />
        <mxCell id="1" parent="0" />
        <mxCell id="etzrCaDDnZUVcSAjSshA-4" style="edgeStyle=orthogonalEdgeStyle;rounded=0;orthogonalLoop=1;jettySize=auto;html=1;exitX=0;exitY=0;exitDx=0;exitDy=0;labelBackgroundColor=none;strokeColor=#23445D;fontColor=default;" parent="1" source="etzrCaDDnZUVcSAjSshA-2" edge="1">
          <mxGeometry relative="1" as="geometry">
            <mxPoint x="330" y="280" as="targetPoint" />
          </mxGeometry>
        </mxCell>
        <mxCell id="etzrCaDDnZUVcSAjSshA-2" value="&lt;font style=&quot;font-size: 18px;&quot;&gt;EMPLEADO&lt;/font&gt;" style="rounded=0;whiteSpace=wrap;html=1;labelBackgroundColor=none;fillColor=#182E3E;strokeColor=#FFFFFF;fontColor=#FFFFFF;" parent="1" vertex="1">
          <mxGeometry x="310" y="260" width="160" height="80" as="geometry" />
        </mxCell>
        <mxCell id="etzrCaDDnZUVcSAjSshA-9" value="Dirección" style="ellipse;whiteSpace=wrap;html=1;labelBackgroundColor=none;fillColor=#182E3E;strokeColor=#FFFFFF;fontColor=#FFFFFF;" parent="1" vertex="1">
          <mxGeometry x="500" y="360" width="70" height="50" as="geometry" />
        </mxCell>
        <mxCell id="etzrCaDDnZUVcSAjSshA-10" value="Nombre" style="ellipse;whiteSpace=wrap;html=1;labelBackgroundColor=none;fillColor=#182E3E;strokeColor=#FFFFFF;fontColor=#FFFFFF;" parent="1" vertex="1">
          <mxGeometry x="440" y="160" width="70" height="50" as="geometry" />
        </mxCell>
        <mxCell id="etzrCaDDnZUVcSAjSshA-13" value="&lt;u&gt;NSS&lt;/u&gt;" style="ellipse;whiteSpace=wrap;html=1;labelBackgroundColor=none;fillColor=#182E3E;strokeColor=#FFFFFF;fontColor=#FFFFFF;" parent="1" vertex="1">
          <mxGeometry x="350" y="150" width="70" height="50" as="geometry" />
        </mxCell>
        <mxCell id="etzrCaDDnZUVcSAjSshA-14" value="Cumpleaños" style="ellipse;whiteSpace=wrap;html=1;labelBackgroundColor=none;fillColor=#182E3E;strokeColor=#FFFFFF;fontColor=#FFFFFF;" parent="1" vertex="1">
          <mxGeometry x="500" y="220" width="80" height="50" as="geometry" />
        </mxCell>
        <mxCell id="etzrCaDDnZUVcSAjSshA-15" value="Salario" style="ellipse;whiteSpace=wrap;html=1;labelBackgroundColor=none;fillColor=#182E3E;strokeColor=#FFFFFF;fontColor=#FFFFFF;" parent="1" vertex="1">
          <mxGeometry x="520" y="290" width="70" height="50" as="geometry" />
        </mxCell>
        <mxCell id="etzrCaDDnZUVcSAjSshA-103" style="edgeStyle=orthogonalEdgeStyle;rounded=0;orthogonalLoop=1;jettySize=auto;html=1;exitX=0.5;exitY=0;exitDx=0;exitDy=0;entryX=0.5;entryY=1;entryDx=0;entryDy=0;shape=link;labelBackgroundColor=none;strokeColor=#23445D;fontColor=default;" parent="1" source="etzrCaDDnZUVcSAjSshA-17" target="etzrCaDDnZUVcSAjSshA-2" edge="1">
          <mxGeometry relative="1" as="geometry" />
        </mxCell>
        <mxCell id="etzrCaDDnZUVcSAjSshA-17" value="&lt;font size=&quot;3&quot;&gt;d&lt;/font&gt;" style="ellipse;whiteSpace=wrap;html=1;aspect=fixed;labelBackgroundColor=none;fillColor=#182E3E;strokeColor=#FFFFFF;fontColor=#FFFFFF;" parent="1" vertex="1">
          <mxGeometry x="365" y="420" width="50" height="50" as="geometry" />
        </mxCell>
        <mxCell id="etzrCaDDnZUVcSAjSshA-28" value="&lt;font style=&quot;font-size: 18px;&quot;&gt;ADMINISTRATIVO&lt;/font&gt;" style="rounded=0;whiteSpace=wrap;html=1;labelBackgroundColor=none;fillColor=#182E3E;strokeColor=#FFFFFF;fontColor=#FFFFFF;" parent="1" vertex="1">
          <mxGeometry x="-5" y="540" width="160" height="80" as="geometry" />
        </mxCell>
        <mxCell id="etzrCaDDnZUVcSAjSshA-29" value="&lt;font style=&quot;font-size: 18px;&quot;&gt;LIMPIEZA&lt;/font&gt;" style="rounded=0;whiteSpace=wrap;html=1;labelBackgroundColor=none;fillColor=#182E3E;strokeColor=#FFFFFF;fontColor=#FFFFFF;" parent="1" vertex="1">
          <mxGeometry x="199" y="540" width="160" height="80" as="geometry" />
        </mxCell>
        <mxCell id="etzrCaDDnZUVcSAjSshA-30" value="&lt;font style=&quot;font-size: 18px;&quot;&gt;ENFERMERO&lt;/font&gt;" style="rounded=0;whiteSpace=wrap;html=1;labelBackgroundColor=none;fillColor=#182E3E;strokeColor=#FFFFFF;fontColor=#FFFFFF;" parent="1" vertex="1">
          <mxGeometry x="415" y="545" width="160" height="80" as="geometry" />
        </mxCell>
        <mxCell id="etzrCaDDnZUVcSAjSshA-31" value="&lt;font style=&quot;font-size: 18px;&quot;&gt;MEDICO&lt;/font&gt;" style="rounded=0;whiteSpace=wrap;html=1;labelBackgroundColor=none;fillColor=#182E3E;strokeColor=#FFFFFF;fontColor=#FFFFFF;" parent="1" vertex="1">
          <mxGeometry x="635" y="545" width="160" height="80" as="geometry" />
        </mxCell>
        <mxCell id="etzrCaDDnZUVcSAjSshA-33" value="ESPECIALIZADO&lt;div&gt;EN&lt;/div&gt;" style="rhombus;whiteSpace=wrap;html=1;labelBackgroundColor=none;fillColor=#182E3E;strokeColor=#FFFFFF;fontColor=#FFFFFF;" parent="1" vertex="1">
          <mxGeometry x="532.5" y="720" width="145" height="120" as="geometry" />
        </mxCell>
        <mxCell id="etzrCaDDnZUVcSAjSshA-34" value="&lt;span style=&quot;font-size: 18px;&quot;&gt;ESPECIALIDAD&lt;/span&gt;" style="rounded=0;whiteSpace=wrap;html=1;labelBackgroundColor=none;fillColor=#182E3E;strokeColor=#FFFFFF;fontColor=#FFFFFF;" parent="1" vertex="1">
          <mxGeometry x="525" y="940" width="160" height="80" as="geometry" />
        </mxCell>
        <mxCell id="etzrCaDDnZUVcSAjSshA-35" value="&lt;font style=&quot;font-size: 18px;&quot;&gt;CARDIÓLOGO&lt;/font&gt;" style="rounded=0;whiteSpace=wrap;html=1;labelBackgroundColor=none;fillColor=#182E3E;strokeColor=#FFFFFF;fontColor=#FFFFFF;" parent="1" vertex="1">
          <mxGeometry x="285" y="1260" width="160" height="80" as="geometry" />
        </mxCell>
        <mxCell id="etzrCaDDnZUVcSAjSshA-36" value="&lt;span style=&quot;font-size: 18px;&quot;&gt;MÉD. FAMILIA&lt;/span&gt;" style="rounded=0;whiteSpace=wrap;html=1;labelBackgroundColor=none;fillColor=#182E3E;strokeColor=#FFFFFF;fontColor=#FFFFFF;" parent="1" vertex="1">
          <mxGeometry x="525" y="1260" width="160" height="80" as="geometry" />
        </mxCell>
        <mxCell id="etzrCaDDnZUVcSAjSshA-37" value="&lt;font style=&quot;font-size: 18px;&quot;&gt;ONCÓLGO&lt;/font&gt;" style="rounded=0;whiteSpace=wrap;html=1;labelBackgroundColor=none;fillColor=#182E3E;strokeColor=#FFFFFF;fontColor=#FFFFFF;" parent="1" vertex="1">
          <mxGeometry x="775" y="1260" width="160" height="80" as="geometry" />
        </mxCell>
        <mxCell id="etzrCaDDnZUVcSAjSshA-38" value="Num_Pacientes" style="ellipse;whiteSpace=wrap;html=1;labelBackgroundColor=none;fillColor=#182E3E;strokeColor=#FFFFFF;fontColor=#FFFFFF;" parent="1" vertex="1">
          <mxGeometry x="360" y="650" width="100" height="50" as="geometry" />
        </mxCell>
        <mxCell id="etzrCaDDnZUVcSAjSshA-108" value="" style="edgeStyle=orthogonalEdgeStyle;rounded=0;orthogonalLoop=1;jettySize=auto;html=1;shape=link;labelBackgroundColor=none;strokeColor=#23445D;fontColor=default;" parent="1" source="etzrCaDDnZUVcSAjSshA-40" target="etzrCaDDnZUVcSAjSshA-31" edge="1">
          <mxGeometry relative="1" as="geometry" />
        </mxCell>
        <mxCell id="etzrCaDDnZUVcSAjSshA-40" value="&lt;font size=&quot;3&quot;&gt;d&lt;/font&gt;" style="ellipse;whiteSpace=wrap;html=1;aspect=fixed;labelBackgroundColor=none;fillColor=#182E3E;strokeColor=#FFFFFF;fontColor=#FFFFFF;" parent="1" vertex="1">
          <mxGeometry x="855" y="560" width="50" height="50" as="geometry" />
        </mxCell>
        <mxCell id="etzrCaDDnZUVcSAjSshA-41" value="&lt;font style=&quot;font-size: 18px;&quot;&gt;EMPLEADO&lt;/font&gt;" style="rounded=0;whiteSpace=wrap;html=1;labelBackgroundColor=none;fillColor=#182E3E;strokeColor=#FFFFFF;fontColor=#FFFFFF;" parent="1" vertex="1">
          <mxGeometry x="955" y="420" width="160" height="80" as="geometry" />
        </mxCell>
        <mxCell id="etzrCaDDnZUVcSAjSshA-42" value="&lt;font style=&quot;font-size: 18px;&quot;&gt;EMPLEADO&lt;/font&gt;" style="rounded=0;whiteSpace=wrap;html=1;labelBackgroundColor=none;fillColor=#182E3E;strokeColor=#FFFFFF;fontColor=#FFFFFF;" parent="1" vertex="1">
          <mxGeometry x="955" y="545" width="160" height="80" as="geometry" />
        </mxCell>
        <mxCell id="etzrCaDDnZUVcSAjSshA-43" value="&lt;font style=&quot;font-size: 18px;&quot;&gt;EMPLEADO&lt;/font&gt;" style="rounded=0;whiteSpace=wrap;html=1;labelBackgroundColor=none;fillColor=#182E3E;strokeColor=#FFFFFF;fontColor=#FFFFFF;" parent="1" vertex="1">
          <mxGeometry x="955" y="670" width="160" height="80" as="geometry" />
        </mxCell>
        <mxCell id="etzrCaDDnZUVcSAjSshA-44" value="TRATA A" style="rhombus;whiteSpace=wrap;html=1;labelBackgroundColor=none;fillColor=#182E3E;strokeColor=#FFFFFF;fontColor=#FFFFFF;" parent="1" vertex="1">
          <mxGeometry x="770" y="40" width="120" height="80" as="geometry" />
        </mxCell>
        <mxCell id="etzrCaDDnZUVcSAjSshA-45" value="CONSULTA" style="rhombus;whiteSpace=wrap;html=1;labelBackgroundColor=none;fillColor=#182E3E;strokeColor=#FFFFFF;fontColor=#FFFFFF;" parent="1" vertex="1">
          <mxGeometry x="770" y="205" width="120" height="80" as="geometry" />
        </mxCell>
        <mxCell id="etzrCaDDnZUVcSAjSshA-46" value="&lt;span style=&quot;font-size: 18px;&quot;&gt;PACIENTE&lt;/span&gt;" style="rounded=0;whiteSpace=wrap;html=1;labelBackgroundColor=none;fillColor=#182E3E;strokeColor=#FFFFFF;fontColor=#FFFFFF;" parent="1" vertex="1">
          <mxGeometry x="1005" y="-210" width="160" height="60" as="geometry" />
        </mxCell>
        <mxCell id="etzrCaDDnZUVcSAjSshA-47" value="&lt;u&gt;DNI&lt;/u&gt;" style="ellipse;whiteSpace=wrap;html=1;labelBackgroundColor=none;fillColor=#182E3E;strokeColor=#FFFFFF;fontColor=#FFFFFF;" parent="1" vertex="1">
          <mxGeometry x="1225" y="-150" width="70" height="50" as="geometry" />
        </mxCell>
        <mxCell id="etzrCaDDnZUVcSAjSshA-48" value="Fecha_alta" style="ellipse;whiteSpace=wrap;html=1;labelBackgroundColor=none;fillColor=#182E3E;strokeColor=#FFFFFF;fontColor=#FFFFFF;" parent="1" vertex="1">
          <mxGeometry x="905" y="-300" width="70" height="50" as="geometry" />
        </mxCell>
        <mxCell id="etzrCaDDnZUVcSAjSshA-49" value="Historial" style="ellipse;whiteSpace=wrap;html=1;labelBackgroundColor=none;fillColor=#182E3E;strokeColor=#FFFFFF;fontColor=#FFFFFF;" parent="1" vertex="1">
          <mxGeometry x="995" y="-350" width="70" height="50" as="geometry" />
        </mxCell>
        <mxCell id="etzrCaDDnZUVcSAjSshA-54" value="Dolencia" style="ellipse;whiteSpace=wrap;html=1;labelBackgroundColor=none;fillColor=#182E3E;strokeColor=#FFFFFF;fontColor=#FFFFFF;" parent="1" vertex="1">
          <mxGeometry x="1195" y="-310" width="70" height="50" as="geometry" />
        </mxCell>
        <mxCell id="etzrCaDDnZUVcSAjSshA-56" value="VISITADO POR" style="rhombus;whiteSpace=wrap;html=1;labelBackgroundColor=none;fillColor=#182E3E;strokeColor=#FFFFFF;fontColor=#FFFFFF;" parent="1" vertex="1">
          <mxGeometry x="1310" y="30" width="120" height="80" as="geometry" />
        </mxCell>
        <mxCell id="etzrCaDDnZUVcSAjSshA-57" value="&lt;font style=&quot;font-size: 18px;&quot;&gt;FAMILIAR&lt;/font&gt;" style="rounded=0;whiteSpace=wrap;html=1;labelBackgroundColor=none;fillColor=#182E3E;strokeColor=#FFFFFF;fontColor=#FFFFFF;" parent="1" vertex="1">
          <mxGeometry x="1580" y="30" width="160" height="80" as="geometry" />
        </mxCell>
        <mxCell id="etzrCaDDnZUVcSAjSshA-59" value="Relación" style="ellipse;whiteSpace=wrap;html=1;labelBackgroundColor=none;fillColor=#182E3E;strokeColor=#FFFFFF;fontColor=#FFFFFF;" parent="1" vertex="1">
          <mxGeometry x="1800" y="80" width="70" height="50" as="geometry" />
        </mxCell>
        <mxCell id="etzrCaDDnZUVcSAjSshA-60" value="Cumpleaños" style="ellipse;whiteSpace=wrap;html=1;labelBackgroundColor=none;fillColor=#182E3E;strokeColor=#FFFFFF;fontColor=#FFFFFF;" parent="1" vertex="1">
          <mxGeometry x="1795" y="10" width="100" height="50" as="geometry" />
        </mxCell>
        <mxCell id="etzrCaDDnZUVcSAjSshA-61" value="Sexo" style="ellipse;whiteSpace=wrap;html=1;labelBackgroundColor=none;fillColor=#182E3E;strokeColor=#FFFFFF;fontColor=#FFFFFF;" parent="1" vertex="1">
          <mxGeometry x="1740" y="-50" width="70" height="50" as="geometry" />
        </mxCell>
        <mxCell id="etzrCaDDnZUVcSAjSshA-62" value="Nombre" style="ellipse;whiteSpace=wrap;html=1;labelBackgroundColor=none;fillColor=#182E3E;strokeColor=#FFFFFF;fontColor=#FFFFFF;" parent="1" vertex="1">
          <mxGeometry x="1740" y="140" width="70" height="50" as="geometry" />
        </mxCell>
        <mxCell id="etzrCaDDnZUVcSAjSshA-63" value="Fecha" style="ellipse;whiteSpace=wrap;html=1;labelBackgroundColor=none;fillColor=#182E3E;strokeColor=#FFFFFF;fontColor=#FFFFFF;" parent="1" vertex="1">
          <mxGeometry x="1250" y="110" width="70" height="50" as="geometry" />
        </mxCell>
        <mxCell id="etzrCaDDnZUVcSAjSshA-65" value="Duración" style="ellipse;whiteSpace=wrap;html=1;labelBackgroundColor=none;fillColor=#182E3E;strokeColor=#FFFFFF;fontColor=#FFFFFF;" parent="1" vertex="1">
          <mxGeometry x="1335" y="140" width="70" height="50" as="geometry" />
        </mxCell>
        <mxCell id="etzrCaDDnZUVcSAjSshA-66" value="ID" style="ellipse;whiteSpace=wrap;html=1;labelBackgroundColor=none;fillColor=#182E3E;strokeColor=#FFFFFF;fontColor=#FFFFFF;" parent="1" vertex="1">
          <mxGeometry x="1430" y="110" width="70" height="50" as="geometry" />
        </mxCell>
        <mxCell id="etzrCaDDnZUVcSAjSshA-67" value="Fecha" style="ellipse;whiteSpace=wrap;html=1;labelBackgroundColor=none;fillColor=#182E3E;strokeColor=#FFFFFF;fontColor=#FFFFFF;" parent="1" vertex="1">
          <mxGeometry x="935" y="270" width="70" height="50" as="geometry" />
        </mxCell>
        <mxCell id="etzrCaDDnZUVcSAjSshA-68" value="Diagnóstico" style="ellipse;whiteSpace=wrap;html=1;labelBackgroundColor=none;fillColor=#182E3E;strokeColor=#FFFFFF;fontColor=#FFFFFF;" parent="1" vertex="1">
          <mxGeometry x="875" y="320" width="80" height="50" as="geometry" />
        </mxCell>
        <mxCell id="etzrCaDDnZUVcSAjSshA-69" value="&lt;font style=&quot;font-size: 18px;&quot;&gt;HOSPITAL&lt;/font&gt;" style="rounded=0;whiteSpace=wrap;html=1;labelBackgroundColor=none;fillColor=#182E3E;strokeColor=#FFFFFF;fontColor=#FFFFFF;" parent="1" vertex="1">
          <mxGeometry x="-60" y="-200" width="160" height="80" as="geometry" />
        </mxCell>
        <mxCell id="etzrCaDDnZUVcSAjSshA-70" value="&lt;font size=&quot;3&quot;&gt;U&lt;/font&gt;" style="ellipse;whiteSpace=wrap;html=1;aspect=fixed;labelBackgroundColor=none;fillColor=#182E3E;strokeColor=#FFFFFF;fontColor=#FFFFFF;" parent="1" vertex="1">
          <mxGeometry x="-5" y="-10" width="50" height="50" as="geometry" />
        </mxCell>
        <mxCell id="etzrCaDDnZUVcSAjSshA-71" value="&lt;span style=&quot;font-size: 18px;&quot;&gt;PLANTA&lt;/span&gt;" style="rounded=0;whiteSpace=wrap;html=1;labelBackgroundColor=none;fillColor=#182E3E;strokeColor=#FFFFFF;fontColor=#FFFFFF;" parent="1" vertex="1">
          <mxGeometry x="-340" y="145" width="160" height="80" as="geometry" />
        </mxCell>
        <mxCell id="etzrCaDDnZUVcSAjSshA-74" value="Num:Hab" style="ellipse;whiteSpace=wrap;html=1;labelBackgroundColor=none;fillColor=#182E3E;strokeColor=#FFFFFF;fontColor=#FFFFFF;" parent="1" vertex="1">
          <mxGeometry x="-320" y="-500" width="70" height="50" as="geometry" />
        </mxCell>
        <mxCell id="etzrCaDDnZUVcSAjSshA-75" value="COMPUESTO&lt;div&gt;POR&lt;/div&gt;" style="rhombus;whiteSpace=wrap;html=1;labelBackgroundColor=none;fillColor=#182E3E;strokeColor=#FFFFFF;fontColor=#FFFFFF;" parent="1" vertex="1">
          <mxGeometry x="-340" y="-85" width="160" height="100" as="geometry" />
        </mxCell>
        <mxCell id="etzrCaDDnZUVcSAjSshA-76" value="&lt;span style=&quot;font-size: 18px;&quot;&gt;HABITACIONES&lt;/span&gt;" style="rounded=0;whiteSpace=wrap;html=1;labelBackgroundColor=none;fillColor=#182E3E;strokeColor=#FFFFFF;fontColor=#FFFFFF;" parent="1" vertex="1">
          <mxGeometry x="-340" y="-400" width="160" height="80" as="geometry" />
        </mxCell>
        <mxCell id="etzrCaDDnZUVcSAjSshA-77" value="COMPUESTO&lt;div&gt;POR&lt;/div&gt;" style="rhombus;whiteSpace=wrap;html=1;labelBackgroundColor=none;fillColor=#182E3E;strokeColor=#FFFFFF;fontColor=#FFFFFF;" parent="1" vertex="1">
          <mxGeometry x="-40" y="-410" width="155" height="100" as="geometry" />
        </mxCell>
        <mxCell id="etzrCaDDnZUVcSAjSshA-78" value="&lt;span style=&quot;font-size: 18px;&quot;&gt;CAMAS&lt;/span&gt;" style="rounded=0;whiteSpace=wrap;html=1;labelBackgroundColor=none;fillColor=#182E3E;strokeColor=#FFFFFF;fontColor=#FFFFFF;" parent="1" vertex="1">
          <mxGeometry x="290" y="-400" width="160" height="80" as="geometry" />
        </mxCell>
        <mxCell id="etzrCaDDnZUVcSAjSshA-79" value="Num_cama" style="ellipse;whiteSpace=wrap;html=1;labelBackgroundColor=none;fillColor=#182E3E;strokeColor=#FFFFFF;fontColor=#FFFFFF;" parent="1" vertex="1">
          <mxGeometry x="275" y="-510" width="90" height="50" as="geometry" />
        </mxCell>
        <mxCell id="etzrCaDDnZUVcSAjSshA-83" value="CONTIENE" style="rhombus;whiteSpace=wrap;html=1;labelBackgroundColor=none;fillColor=#182E3E;strokeColor=#FFFFFF;fontColor=#FFFFFF;" parent="1" vertex="1">
          <mxGeometry x="310" y="-220" width="120" height="80" as="geometry" />
        </mxCell>
        <mxCell id="etzrCaDDnZUVcSAjSshA-85" value="Turno" style="ellipse;shape=doubleEllipse;whiteSpace=wrap;html=1;labelBackgroundColor=none;fillColor=#182E3E;strokeColor=#FFFFFF;fontColor=#FFFFFF;" parent="1" vertex="1">
          <mxGeometry x="250" y="170" width="80" height="50" as="geometry" />
        </mxCell>
        <mxCell id="etzrCaDDnZUVcSAjSshA-87" value="1er Apell." style="ellipse;whiteSpace=wrap;html=1;labelBackgroundColor=none;fillColor=#182E3E;strokeColor=#FFFFFF;fontColor=#FFFFFF;" parent="1" vertex="1">
          <mxGeometry x="500" y="100" width="70" height="50" as="geometry" />
        </mxCell>
        <mxCell id="etzrCaDDnZUVcSAjSshA-88" value="N" style="ellipse;whiteSpace=wrap;html=1;labelBackgroundColor=none;fillColor=#182E3E;strokeColor=#FFFFFF;fontColor=#FFFFFF;" parent="1" vertex="1">
          <mxGeometry x="420" y="90" width="70" height="50" as="geometry" />
        </mxCell>
        <mxCell id="etzrCaDDnZUVcSAjSshA-89" value="2er Apell." style="ellipse;whiteSpace=wrap;html=1;labelBackgroundColor=none;fillColor=#182E3E;strokeColor=#FFFFFF;fontColor=#FFFFFF;" parent="1" vertex="1">
          <mxGeometry x="540" y="155" width="70" height="50" as="geometry" />
        </mxCell>
        <mxCell id="etzrCaDDnZUVcSAjSshA-94" value="" style="endArrow=none;html=1;rounded=0;entryX=0;entryY=0;entryDx=0;entryDy=0;exitX=1;exitY=1;exitDx=0;exitDy=0;labelBackgroundColor=none;strokeColor=#23445D;fontColor=default;" parent="1" source="etzrCaDDnZUVcSAjSshA-2" target="etzrCaDDnZUVcSAjSshA-9" edge="1">
          <mxGeometry width="50" height="50" relative="1" as="geometry">
            <mxPoint x="350" y="280" as="sourcePoint" />
            <mxPoint x="400" y="230" as="targetPoint" />
          </mxGeometry>
        </mxCell>
        <mxCell id="etzrCaDDnZUVcSAjSshA-95" value="" style="endArrow=none;html=1;rounded=0;entryX=0.5;entryY=1;entryDx=0;entryDy=0;exitX=0.479;exitY=-0.01;exitDx=0;exitDy=0;exitPerimeter=0;labelBackgroundColor=none;strokeColor=#23445D;fontColor=default;" parent="1" source="etzrCaDDnZUVcSAjSshA-2" target="etzrCaDDnZUVcSAjSshA-13" edge="1">
          <mxGeometry width="50" height="50" relative="1" as="geometry">
            <mxPoint x="320" y="270" as="sourcePoint" />
            <mxPoint x="315" y="230" as="targetPoint" />
          </mxGeometry>
        </mxCell>
        <mxCell id="etzrCaDDnZUVcSAjSshA-96" value="" style="endArrow=none;html=1;rounded=0;exitX=0.75;exitY=0;exitDx=0;exitDy=0;labelBackgroundColor=none;strokeColor=#23445D;fontColor=default;" parent="1" source="etzrCaDDnZUVcSAjSshA-2" target="etzrCaDDnZUVcSAjSshA-10" edge="1">
          <mxGeometry width="50" height="50" relative="1" as="geometry">
            <mxPoint x="360" y="270" as="sourcePoint" />
            <mxPoint x="395" y="210" as="targetPoint" />
          </mxGeometry>
        </mxCell>
        <mxCell id="etzrCaDDnZUVcSAjSshA-97" value="" style="endArrow=none;html=1;rounded=0;exitX=1;exitY=0;exitDx=0;exitDy=0;entryX=0;entryY=0.5;entryDx=0;entryDy=0;labelBackgroundColor=none;strokeColor=#23445D;fontColor=default;" parent="1" source="etzrCaDDnZUVcSAjSshA-2" target="etzrCaDDnZUVcSAjSshA-14" edge="1">
          <mxGeometry width="50" height="50" relative="1" as="geometry">
            <mxPoint x="440" y="270" as="sourcePoint" />
            <mxPoint x="471" y="218" as="targetPoint" />
          </mxGeometry>
        </mxCell>
        <mxCell id="etzrCaDDnZUVcSAjSshA-98" value="" style="endArrow=none;html=1;rounded=0;exitX=1;exitY=0.5;exitDx=0;exitDy=0;entryX=0;entryY=0.5;entryDx=0;entryDy=0;labelBackgroundColor=none;strokeColor=#23445D;fontColor=default;" parent="1" source="etzrCaDDnZUVcSAjSshA-2" target="etzrCaDDnZUVcSAjSshA-15" edge="1">
          <mxGeometry width="50" height="50" relative="1" as="geometry">
            <mxPoint x="480" y="270" as="sourcePoint" />
            <mxPoint x="510" y="255" as="targetPoint" />
          </mxGeometry>
        </mxCell>
        <mxCell id="etzrCaDDnZUVcSAjSshA-99" value="" style="endArrow=none;html=1;rounded=0;exitX=0.25;exitY=0;exitDx=0;exitDy=0;entryX=1;entryY=1;entryDx=0;entryDy=0;labelBackgroundColor=none;strokeColor=#23445D;fontColor=default;" parent="1" source="etzrCaDDnZUVcSAjSshA-2" target="etzrCaDDnZUVcSAjSshA-85" edge="1">
          <mxGeometry width="50" height="50" relative="1" as="geometry">
            <mxPoint x="480" y="310" as="sourcePoint" />
            <mxPoint x="530" y="325" as="targetPoint" />
          </mxGeometry>
        </mxCell>
        <mxCell id="etzrCaDDnZUVcSAjSshA-100" value="" style="endArrow=none;html=1;rounded=0;entryX=0.5;entryY=1;entryDx=0;entryDy=0;exitX=0.5;exitY=0;exitDx=0;exitDy=0;labelBackgroundColor=none;strokeColor=#23445D;fontColor=default;" parent="1" source="etzrCaDDnZUVcSAjSshA-10" target="etzrCaDDnZUVcSAjSshA-88" edge="1">
          <mxGeometry width="50" height="50" relative="1" as="geometry">
            <mxPoint x="397" y="269" as="sourcePoint" />
            <mxPoint x="395" y="210" as="targetPoint" />
          </mxGeometry>
        </mxCell>
        <mxCell id="etzrCaDDnZUVcSAjSshA-101" value="" style="endArrow=none;html=1;rounded=0;entryX=0;entryY=1;entryDx=0;entryDy=0;exitX=0.695;exitY=0.055;exitDx=0;exitDy=0;exitPerimeter=0;labelBackgroundColor=none;strokeColor=#23445D;fontColor=default;" parent="1" source="etzrCaDDnZUVcSAjSshA-10" target="etzrCaDDnZUVcSAjSshA-87" edge="1">
          <mxGeometry width="50" height="50" relative="1" as="geometry">
            <mxPoint x="485" y="170" as="sourcePoint" />
            <mxPoint x="465" y="150" as="targetPoint" />
          </mxGeometry>
        </mxCell>
        <mxCell id="etzrCaDDnZUVcSAjSshA-102" value="" style="endArrow=none;html=1;rounded=0;entryX=0;entryY=0.5;entryDx=0;entryDy=0;exitX=1;exitY=0.5;exitDx=0;exitDy=0;labelBackgroundColor=none;strokeColor=#23445D;fontColor=default;" parent="1" source="etzrCaDDnZUVcSAjSshA-10" target="etzrCaDDnZUVcSAjSshA-89" edge="1">
          <mxGeometry width="50" height="50" relative="1" as="geometry">
            <mxPoint x="499" y="173" as="sourcePoint" />
            <mxPoint x="520" y="153" as="targetPoint" />
          </mxGeometry>
        </mxCell>
        <mxCell id="etzrCaDDnZUVcSAjSshA-104" value="" style="endArrow=none;html=1;rounded=0;exitX=0.5;exitY=0;exitDx=0;exitDy=0;entryX=0.5;entryY=1;entryDx=0;entryDy=0;labelBackgroundColor=none;strokeColor=#23445D;fontColor=default;" parent="1" source="etzrCaDDnZUVcSAjSshA-28" target="etzrCaDDnZUVcSAjSshA-17" edge="1">
          <mxGeometry width="50" height="50" relative="1" as="geometry">
            <mxPoint x="480" y="350" as="sourcePoint" />
            <mxPoint x="512" y="377" as="targetPoint" />
          </mxGeometry>
        </mxCell>
        <mxCell id="etzrCaDDnZUVcSAjSshA-105" value="" style="endArrow=none;html=1;rounded=0;exitX=0.5;exitY=0;exitDx=0;exitDy=0;labelBackgroundColor=none;strokeColor=#23445D;fontColor=default;" parent="1" source="etzrCaDDnZUVcSAjSshA-29" edge="1">
          <mxGeometry width="50" height="50" relative="1" as="geometry">
            <mxPoint x="85" y="550" as="sourcePoint" />
            <mxPoint x="390" y="470" as="targetPoint" />
          </mxGeometry>
        </mxCell>
        <mxCell id="etzrCaDDnZUVcSAjSshA-106" value="" style="endArrow=none;html=1;rounded=0;exitX=0.5;exitY=0;exitDx=0;exitDy=0;entryX=0.5;entryY=1;entryDx=0;entryDy=0;labelBackgroundColor=none;strokeColor=#23445D;fontColor=default;" parent="1" source="etzrCaDDnZUVcSAjSshA-30" target="etzrCaDDnZUVcSAjSshA-17" edge="1">
          <mxGeometry width="50" height="50" relative="1" as="geometry">
            <mxPoint x="289" y="550" as="sourcePoint" />
            <mxPoint x="400" y="480" as="targetPoint" />
          </mxGeometry>
        </mxCell>
        <mxCell id="etzrCaDDnZUVcSAjSshA-107" value="" style="endArrow=none;html=1;rounded=0;exitX=0.5;exitY=0;exitDx=0;exitDy=0;entryX=0.5;entryY=1;entryDx=0;entryDy=0;labelBackgroundColor=none;strokeColor=#23445D;fontColor=default;" parent="1" source="etzrCaDDnZUVcSAjSshA-31" target="etzrCaDDnZUVcSAjSshA-17" edge="1">
          <mxGeometry width="50" height="50" relative="1" as="geometry">
            <mxPoint x="505" y="555" as="sourcePoint" />
            <mxPoint x="400" y="480" as="targetPoint" />
          </mxGeometry>
        </mxCell>
        <mxCell id="etzrCaDDnZUVcSAjSshA-109" value="" style="endArrow=none;html=1;rounded=0;exitX=0;exitY=0.5;exitDx=0;exitDy=0;entryX=1;entryY=0.5;entryDx=0;entryDy=0;labelBackgroundColor=none;strokeColor=#23445D;fontColor=default;" parent="1" source="etzrCaDDnZUVcSAjSshA-41" target="etzrCaDDnZUVcSAjSshA-40" edge="1">
          <mxGeometry width="50" height="50" relative="1" as="geometry">
            <mxPoint x="725" y="555" as="sourcePoint" />
            <mxPoint x="400" y="480" as="targetPoint" />
          </mxGeometry>
        </mxCell>
        <mxCell id="etzrCaDDnZUVcSAjSshA-110" value="" style="endArrow=none;html=1;rounded=0;exitX=0;exitY=0.5;exitDx=0;exitDy=0;entryX=1;entryY=0.5;entryDx=0;entryDy=0;labelBackgroundColor=none;strokeColor=#23445D;fontColor=default;" parent="1" source="etzrCaDDnZUVcSAjSshA-42" target="etzrCaDDnZUVcSAjSshA-40" edge="1">
          <mxGeometry width="50" height="50" relative="1" as="geometry">
            <mxPoint x="965" y="470" as="sourcePoint" />
            <mxPoint x="915" y="595" as="targetPoint" />
          </mxGeometry>
        </mxCell>
        <mxCell id="etzrCaDDnZUVcSAjSshA-111" value="" style="endArrow=none;html=1;rounded=0;exitX=0;exitY=0.5;exitDx=0;exitDy=0;entryX=1;entryY=0.5;entryDx=0;entryDy=0;labelBackgroundColor=none;strokeColor=#23445D;fontColor=default;" parent="1" source="etzrCaDDnZUVcSAjSshA-43" target="etzrCaDDnZUVcSAjSshA-40" edge="1">
          <mxGeometry width="50" height="50" relative="1" as="geometry">
            <mxPoint x="965" y="595" as="sourcePoint" />
            <mxPoint x="910" y="590" as="targetPoint" />
          </mxGeometry>
        </mxCell>
        <mxCell id="etzrCaDDnZUVcSAjSshA-112" value="Num_Pacientes" style="ellipse;whiteSpace=wrap;html=1;labelBackgroundColor=none;fillColor=#182E3E;strokeColor=#FFFFFF;fontColor=#FFFFFF;" parent="1" vertex="1">
          <mxGeometry x="755" y="660" width="100" height="50" as="geometry" />
        </mxCell>
        <mxCell id="etzrCaDDnZUVcSAjSshA-113" value="" style="endArrow=none;html=1;rounded=0;exitX=0.25;exitY=1;exitDx=0;exitDy=0;entryX=1;entryY=0;entryDx=0;entryDy=0;labelBackgroundColor=none;strokeColor=#23445D;fontColor=default;" parent="1" source="etzrCaDDnZUVcSAjSshA-30" target="etzrCaDDnZUVcSAjSshA-38" edge="1">
          <mxGeometry width="50" height="50" relative="1" as="geometry">
            <mxPoint x="505" y="555" as="sourcePoint" />
            <mxPoint x="400" y="480" as="targetPoint" />
          </mxGeometry>
        </mxCell>
        <mxCell id="etzrCaDDnZUVcSAjSshA-114" value="" style="endArrow=none;html=1;rounded=0;exitX=1;exitY=1;exitDx=0;exitDy=0;entryX=0.5;entryY=0;entryDx=0;entryDy=0;labelBackgroundColor=none;strokeColor=#23445D;fontColor=default;" parent="1" source="etzrCaDDnZUVcSAjSshA-31" target="etzrCaDDnZUVcSAjSshA-112" edge="1">
          <mxGeometry width="50" height="50" relative="1" as="geometry">
            <mxPoint x="505" y="635" as="sourcePoint" />
            <mxPoint x="456" y="668" as="targetPoint" />
          </mxGeometry>
        </mxCell>
        <mxCell id="etzrCaDDnZUVcSAjSshA-115" value="" style="endArrow=none;html=1;rounded=0;exitX=0.5;exitY=1;exitDx=0;exitDy=0;entryX=0.5;entryY=0;entryDx=0;entryDy=0;labelBackgroundColor=none;strokeColor=#23445D;fontColor=default;" parent="1" source="etzrCaDDnZUVcSAjSshA-30" target="etzrCaDDnZUVcSAjSshA-33" edge="1">
          <mxGeometry width="50" height="50" relative="1" as="geometry">
            <mxPoint x="505" y="635" as="sourcePoint" />
            <mxPoint x="456" y="668" as="targetPoint" />
          </mxGeometry>
        </mxCell>
        <mxCell id="etzrCaDDnZUVcSAjSshA-116" value="" style="endArrow=none;html=1;rounded=0;exitX=0.5;exitY=0;exitDx=0;exitDy=0;entryX=0.5;entryY=1;entryDx=0;entryDy=0;labelBackgroundColor=none;strokeColor=#23445D;fontColor=default;" parent="1" source="etzrCaDDnZUVcSAjSshA-33" target="etzrCaDDnZUVcSAjSshA-31" edge="1">
          <mxGeometry width="50" height="50" relative="1" as="geometry">
            <mxPoint x="505" y="635" as="sourcePoint" />
            <mxPoint x="615" y="730" as="targetPoint" />
          </mxGeometry>
        </mxCell>
        <mxCell id="etzrCaDDnZUVcSAjSshA-117" value="" style="endArrow=none;html=1;rounded=0;exitX=0.5;exitY=0;exitDx=0;exitDy=0;entryX=0.5;entryY=1;entryDx=0;entryDy=0;labelBackgroundColor=none;strokeColor=#23445D;fontColor=default;" parent="1" source="etzrCaDDnZUVcSAjSshA-34" target="etzrCaDDnZUVcSAjSshA-33" edge="1">
          <mxGeometry width="50" height="50" relative="1" as="geometry">
            <mxPoint x="615" y="730" as="sourcePoint" />
            <mxPoint x="725" y="635" as="targetPoint" />
          </mxGeometry>
        </mxCell>
        <mxCell id="etzrCaDDnZUVcSAjSshA-119" value="&lt;font size=&quot;3&quot;&gt;d&lt;/font&gt;" style="ellipse;whiteSpace=wrap;html=1;aspect=fixed;labelBackgroundColor=none;fillColor=#182E3E;strokeColor=#FFFFFF;fontColor=#FFFFFF;" parent="1" vertex="1">
          <mxGeometry x="580" y="1080" width="50" height="50" as="geometry" />
        </mxCell>
        <mxCell id="etzrCaDDnZUVcSAjSshA-120" value="" style="endArrow=none;html=1;rounded=0;exitX=0.5;exitY=0;exitDx=0;exitDy=0;entryX=0.5;entryY=1;entryDx=0;entryDy=0;labelBackgroundColor=none;strokeColor=#23445D;fontColor=default;" parent="1" source="etzrCaDDnZUVcSAjSshA-119" target="etzrCaDDnZUVcSAjSshA-34" edge="1">
          <mxGeometry width="50" height="50" relative="1" as="geometry">
            <mxPoint x="615" y="950" as="sourcePoint" />
            <mxPoint x="615" y="850" as="targetPoint" />
          </mxGeometry>
        </mxCell>
        <mxCell id="etzrCaDDnZUVcSAjSshA-121" value="" style="endArrow=none;html=1;rounded=0;exitX=0.5;exitY=1;exitDx=0;exitDy=0;entryX=0.5;entryY=0;entryDx=0;entryDy=0;labelBackgroundColor=none;strokeColor=#23445D;fontColor=default;" parent="1" source="etzrCaDDnZUVcSAjSshA-119" target="etzrCaDDnZUVcSAjSshA-35" edge="1">
          <mxGeometry width="50" height="50" relative="1" as="geometry">
            <mxPoint x="615" y="1090" as="sourcePoint" />
            <mxPoint x="615" y="1030" as="targetPoint" />
          </mxGeometry>
        </mxCell>
        <mxCell id="etzrCaDDnZUVcSAjSshA-122" value="" style="endArrow=none;html=1;rounded=0;entryX=0.5;entryY=0;entryDx=0;entryDy=0;exitX=0.5;exitY=1;exitDx=0;exitDy=0;labelBackgroundColor=none;strokeColor=#23445D;fontColor=default;" parent="1" source="etzrCaDDnZUVcSAjSshA-119" target="etzrCaDDnZUVcSAjSshA-36" edge="1">
          <mxGeometry width="50" height="50" relative="1" as="geometry">
            <mxPoint x="630" y="1150" as="sourcePoint" />
            <mxPoint x="375" y="1270" as="targetPoint" />
          </mxGeometry>
        </mxCell>
        <mxCell id="etzrCaDDnZUVcSAjSshA-123" value="" style="endArrow=none;html=1;rounded=0;entryX=0.5;entryY=0;entryDx=0;entryDy=0;exitX=0.5;exitY=1;exitDx=0;exitDy=0;labelBackgroundColor=none;strokeColor=#23445D;fontColor=default;" parent="1" source="etzrCaDDnZUVcSAjSshA-119" target="etzrCaDDnZUVcSAjSshA-37" edge="1">
          <mxGeometry width="50" height="50" relative="1" as="geometry">
            <mxPoint x="615" y="1140" as="sourcePoint" />
            <mxPoint x="615" y="1270" as="targetPoint" />
          </mxGeometry>
        </mxCell>
        <mxCell id="etzrCaDDnZUVcSAjSshA-124" value="NECESITA" style="rhombus;whiteSpace=wrap;html=1;labelBackgroundColor=none;fillColor=#182E3E;strokeColor=#FFFFFF;fontColor=#FFFFFF;" parent="1" vertex="1">
          <mxGeometry x="615" y="400" width="140" height="80" as="geometry" />
        </mxCell>
        <mxCell id="etzrCaDDnZUVcSAjSshA-125" value="" style="endArrow=none;html=1;rounded=0;exitX=0;exitY=0.5;exitDx=0;exitDy=0;entryX=1;entryY=0;entryDx=0;entryDy=0;labelBackgroundColor=none;strokeColor=#23445D;fontColor=default;" parent="1" source="etzrCaDDnZUVcSAjSshA-124" target="etzrCaDDnZUVcSAjSshA-30" edge="1">
          <mxGeometry width="50" height="50" relative="1" as="geometry">
            <mxPoint x="725" y="555" as="sourcePoint" />
            <mxPoint x="400" y="480" as="targetPoint" />
          </mxGeometry>
        </mxCell>
        <mxCell id="etzrCaDDnZUVcSAjSshA-126" value="" style="endArrow=none;html=1;rounded=0;exitX=1;exitY=0.5;exitDx=0;exitDy=0;entryX=0.75;entryY=0;entryDx=0;entryDy=0;labelBackgroundColor=none;strokeColor=#23445D;fontColor=default;" parent="1" source="etzrCaDDnZUVcSAjSshA-124" target="etzrCaDDnZUVcSAjSshA-31" edge="1">
          <mxGeometry width="50" height="50" relative="1" as="geometry">
            <mxPoint x="625" y="450" as="sourcePoint" />
            <mxPoint x="505" y="555" as="targetPoint" />
          </mxGeometry>
        </mxCell>
        <mxCell id="etzrCaDDnZUVcSAjSshA-127" value="" style="endArrow=none;html=1;rounded=0;exitX=0;exitY=0.5;exitDx=0;exitDy=0;entryX=0.75;entryY=0;entryDx=0;entryDy=0;labelBackgroundColor=none;strokeColor=#23445D;fontColor=default;" parent="1" source="etzrCaDDnZUVcSAjSshA-44" target="etzrCaDDnZUVcSAjSshA-30" edge="1">
          <mxGeometry width="50" height="50" relative="1" as="geometry">
            <mxPoint x="600" y="410" as="sourcePoint" />
            <mxPoint x="520" y="515" as="targetPoint" />
          </mxGeometry>
        </mxCell>
        <mxCell id="etzrCaDDnZUVcSAjSshA-128" value="" style="endArrow=none;html=1;rounded=0;exitX=0;exitY=1;exitDx=0;exitDy=0;entryX=1;entryY=0.5;entryDx=0;entryDy=0;labelBackgroundColor=none;strokeColor=#23445D;fontColor=default;" parent="1" source="etzrCaDDnZUVcSAjSshA-46" target="etzrCaDDnZUVcSAjSshA-44" edge="1">
          <mxGeometry width="50" height="50" relative="1" as="geometry">
            <mxPoint x="780" y="90" as="sourcePoint" />
            <mxPoint x="545" y="555" as="targetPoint" />
          </mxGeometry>
        </mxCell>
        <mxCell id="etzrCaDDnZUVcSAjSshA-129" value="" style="endArrow=none;html=1;rounded=0;exitX=0;exitY=0.5;exitDx=0;exitDy=0;entryX=1;entryY=0;entryDx=0;entryDy=0;labelBackgroundColor=none;strokeColor=#23445D;fontColor=default;" parent="1" source="etzrCaDDnZUVcSAjSshA-45" target="etzrCaDDnZUVcSAjSshA-31" edge="1">
          <mxGeometry width="50" height="50" relative="1" as="geometry">
            <mxPoint x="780" y="90" as="sourcePoint" />
            <mxPoint x="545" y="555" as="targetPoint" />
          </mxGeometry>
        </mxCell>
        <mxCell id="etzrCaDDnZUVcSAjSshA-130" value="" style="endArrow=none;html=1;rounded=0;exitX=1;exitY=0.5;exitDx=0;exitDy=0;entryX=0.25;entryY=1;entryDx=0;entryDy=0;labelBackgroundColor=none;strokeColor=#23445D;fontColor=default;" parent="1" source="etzrCaDDnZUVcSAjSshA-45" target="etzrCaDDnZUVcSAjSshA-46" edge="1">
          <mxGeometry width="50" height="50" relative="1" as="geometry">
            <mxPoint x="780" y="255" as="sourcePoint" />
            <mxPoint x="805" y="555" as="targetPoint" />
          </mxGeometry>
        </mxCell>
        <mxCell id="etzrCaDDnZUVcSAjSshA-131" value="" style="endArrow=none;html=1;rounded=0;exitX=0.5;exitY=1;exitDx=0;exitDy=0;entryX=0;entryY=0.5;entryDx=0;entryDy=0;labelBackgroundColor=none;strokeColor=#23445D;fontColor=default;" parent="1" source="etzrCaDDnZUVcSAjSshA-45" target="etzrCaDDnZUVcSAjSshA-68" edge="1">
          <mxGeometry width="50" height="50" relative="1" as="geometry">
            <mxPoint x="900" y="255" as="sourcePoint" />
            <mxPoint x="1080" y="-30" as="targetPoint" />
          </mxGeometry>
        </mxCell>
        <mxCell id="etzrCaDDnZUVcSAjSshA-132" value="" style="endArrow=none;html=1;rounded=0;exitX=1;exitY=1;exitDx=0;exitDy=0;entryX=0;entryY=0.5;entryDx=0;entryDy=0;labelBackgroundColor=none;strokeColor=#23445D;fontColor=default;" parent="1" source="etzrCaDDnZUVcSAjSshA-45" target="etzrCaDDnZUVcSAjSshA-67" edge="1">
          <mxGeometry width="50" height="50" relative="1" as="geometry">
            <mxPoint x="840" y="295" as="sourcePoint" />
            <mxPoint x="900" y="325" as="targetPoint" />
          </mxGeometry>
        </mxCell>
        <mxCell id="etzrCaDDnZUVcSAjSshA-136" value="Nombre" style="ellipse;whiteSpace=wrap;html=1;labelBackgroundColor=none;fillColor=#182E3E;strokeColor=#FFFFFF;fontColor=#FFFFFF;" parent="1" vertex="1">
          <mxGeometry x="1095" y="-350" width="70" height="50" as="geometry" />
        </mxCell>
        <mxCell id="etzrCaDDnZUVcSAjSshA-137" value="1er Apell." style="ellipse;whiteSpace=wrap;html=1;labelBackgroundColor=none;fillColor=#182E3E;strokeColor=#FFFFFF;fontColor=#FFFFFF;" parent="1" vertex="1">
          <mxGeometry x="1146" y="-440" width="70" height="50" as="geometry" />
        </mxCell>
        <mxCell id="etzrCaDDnZUVcSAjSshA-138" value="N" style="ellipse;whiteSpace=wrap;html=1;labelBackgroundColor=none;fillColor=#182E3E;strokeColor=#FFFFFF;fontColor=#FFFFFF;" parent="1" vertex="1">
          <mxGeometry x="1050" y="-440" width="70" height="50" as="geometry" />
        </mxCell>
        <mxCell id="etzrCaDDnZUVcSAjSshA-139" value="2er Apell." style="ellipse;whiteSpace=wrap;html=1;labelBackgroundColor=none;fillColor=#182E3E;strokeColor=#FFFFFF;fontColor=#FFFFFF;" parent="1" vertex="1">
          <mxGeometry x="1195" y="-370" width="70" height="50" as="geometry" />
        </mxCell>
        <mxCell id="etzrCaDDnZUVcSAjSshA-140" value="" style="endArrow=none;html=1;rounded=0;entryX=0.5;entryY=1;entryDx=0;entryDy=0;exitX=0.5;exitY=0;exitDx=0;exitDy=0;labelBackgroundColor=none;strokeColor=#23445D;fontColor=default;" parent="1" source="etzrCaDDnZUVcSAjSshA-136" target="etzrCaDDnZUVcSAjSshA-138" edge="1">
          <mxGeometry width="50" height="50" relative="1" as="geometry">
            <mxPoint x="1052" y="-241" as="sourcePoint" />
            <mxPoint x="1050" y="-300" as="targetPoint" />
          </mxGeometry>
        </mxCell>
        <mxCell id="etzrCaDDnZUVcSAjSshA-141" value="" style="endArrow=none;html=1;rounded=0;entryX=0;entryY=1;entryDx=0;entryDy=0;exitX=0.695;exitY=0.055;exitDx=0;exitDy=0;exitPerimeter=0;labelBackgroundColor=none;strokeColor=#23445D;fontColor=default;" parent="1" source="etzrCaDDnZUVcSAjSshA-136" target="etzrCaDDnZUVcSAjSshA-137" edge="1">
          <mxGeometry width="50" height="50" relative="1" as="geometry">
            <mxPoint x="1140" y="-340" as="sourcePoint" />
            <mxPoint x="1120" y="-360" as="targetPoint" />
          </mxGeometry>
        </mxCell>
        <mxCell id="etzrCaDDnZUVcSAjSshA-142" value="" style="endArrow=none;html=1;rounded=0;entryX=0;entryY=0.5;entryDx=0;entryDy=0;exitX=1;exitY=0;exitDx=0;exitDy=0;labelBackgroundColor=none;strokeColor=#23445D;fontColor=default;" parent="1" source="etzrCaDDnZUVcSAjSshA-136" target="etzrCaDDnZUVcSAjSshA-139" edge="1">
          <mxGeometry width="50" height="50" relative="1" as="geometry">
            <mxPoint x="1154" y="-337" as="sourcePoint" />
            <mxPoint x="1175" y="-357" as="targetPoint" />
          </mxGeometry>
        </mxCell>
        <mxCell id="etzrCaDDnZUVcSAjSshA-143" value="Gravedad" style="ellipse;shape=doubleEllipse;whiteSpace=wrap;html=1;labelBackgroundColor=none;fillColor=#182E3E;strokeColor=#FFFFFF;fontColor=#FFFFFF;" parent="1" vertex="1">
          <mxGeometry x="1216" y="-240" width="100" height="60" as="geometry" />
        </mxCell>
        <mxCell id="etzrCaDDnZUVcSAjSshA-144" value="Leve&lt;span style=&quot;color: rgba(0, 0, 0, 0); font-family: monospace; font-size: 0px; text-align: start; text-wrap: nowrap;&quot;&gt;%3CmxGraphModel%3E%3Croot%3E%3CmxCell%20id%3D%220%22%2F%3E%3CmxCell%20id%3D%221%22%20parent%3D%220%22%2F%3E%3CmxCell%20id%3D%222%22%20value%3D%22N%22%20style%3D%22ellipse%3BwhiteSpace%3Dwrap%3Bhtml%3D1%3B%22%20vertex%3D%221%22%20parent%3D%221%22%3E%3CmxGeometry%20x%3D%221075%22%20y%3D%22-350%22%20width%3D%2270%22%20height%3D%2250%22%20as%3D%22geometry%22%2F%3E%3C%2FmxCell%3E%3C%2Froot%3E%3C%2FmxGraphModel%3E&lt;/span&gt;" style="ellipse;whiteSpace=wrap;html=1;labelBackgroundColor=none;fillColor=#182E3E;strokeColor=#FFFFFF;fontColor=#FFFFFF;" parent="1" vertex="1">
          <mxGeometry x="1316" y="-320" width="70" height="50" as="geometry" />
        </mxCell>
        <mxCell id="etzrCaDDnZUVcSAjSshA-145" value="Normal" style="ellipse;whiteSpace=wrap;html=1;labelBackgroundColor=none;fillColor=#182E3E;strokeColor=#FFFFFF;fontColor=#FFFFFF;" parent="1" vertex="1">
          <mxGeometry x="1355" y="-260" width="70" height="50" as="geometry" />
        </mxCell>
        <mxCell id="etzrCaDDnZUVcSAjSshA-146" value="Grave" style="ellipse;whiteSpace=wrap;html=1;labelBackgroundColor=none;fillColor=#182E3E;strokeColor=#FFFFFF;fontColor=#FFFFFF;" parent="1" vertex="1">
          <mxGeometry x="1335" y="-200" width="70" height="50" as="geometry" />
        </mxCell>
        <mxCell id="etzrCaDDnZUVcSAjSshA-147" value="" style="endArrow=none;html=1;rounded=0;entryX=0;entryY=1;entryDx=0;entryDy=0;exitX=1;exitY=0;exitDx=0;exitDy=0;labelBackgroundColor=none;strokeColor=#23445D;fontColor=default;" parent="1" source="etzrCaDDnZUVcSAjSshA-143" target="etzrCaDDnZUVcSAjSshA-144" edge="1">
          <mxGeometry width="50" height="50" relative="1" as="geometry">
            <mxPoint x="1165" y="-333" as="sourcePoint" />
            <mxPoint x="1205" y="-335" as="targetPoint" />
          </mxGeometry>
        </mxCell>
        <mxCell id="etzrCaDDnZUVcSAjSshA-148" value="" style="endArrow=none;html=1;rounded=0;entryX=0;entryY=0.5;entryDx=0;entryDy=0;exitX=1;exitY=0.5;exitDx=0;exitDy=0;labelBackgroundColor=none;strokeColor=#23445D;fontColor=default;" parent="1" source="etzrCaDDnZUVcSAjSshA-143" target="etzrCaDDnZUVcSAjSshA-145" edge="1">
          <mxGeometry width="50" height="50" relative="1" as="geometry">
            <mxPoint x="1311" y="-221" as="sourcePoint" />
            <mxPoint x="1336" y="-267" as="targetPoint" />
          </mxGeometry>
        </mxCell>
        <mxCell id="etzrCaDDnZUVcSAjSshA-149" value="" style="endArrow=none;html=1;rounded=0;entryX=0;entryY=0.5;entryDx=0;entryDy=0;exitX=1;exitY=1;exitDx=0;exitDy=0;labelBackgroundColor=none;strokeColor=#23445D;fontColor=default;" parent="1" source="etzrCaDDnZUVcSAjSshA-143" target="etzrCaDDnZUVcSAjSshA-146" edge="1">
          <mxGeometry width="50" height="50" relative="1" as="geometry">
            <mxPoint x="1326" y="-200" as="sourcePoint" />
            <mxPoint x="1365" y="-225" as="targetPoint" />
          </mxGeometry>
        </mxCell>
        <mxCell id="etzrCaDDnZUVcSAjSshA-150" value="" style="endArrow=none;html=1;rounded=0;entryX=1;entryY=0.75;entryDx=0;entryDy=0;exitX=0;exitY=0.5;exitDx=0;exitDy=0;labelBackgroundColor=none;strokeColor=#23445D;fontColor=default;" parent="1" source="etzrCaDDnZUVcSAjSshA-47" target="etzrCaDDnZUVcSAjSshA-46" edge="1">
          <mxGeometry width="50" height="50" relative="1" as="geometry">
            <mxPoint x="1311" y="-221" as="sourcePoint" />
            <mxPoint x="1336" y="-267" as="targetPoint" />
          </mxGeometry>
        </mxCell>
        <mxCell id="etzrCaDDnZUVcSAjSshA-151" value="" style="endArrow=none;html=1;rounded=0;entryX=1;entryY=0.5;entryDx=0;entryDy=0;exitX=0;exitY=1;exitDx=0;exitDy=0;labelBackgroundColor=none;strokeColor=#23445D;fontColor=default;" parent="1" source="etzrCaDDnZUVcSAjSshA-143" target="etzrCaDDnZUVcSAjSshA-46" edge="1">
          <mxGeometry width="50" height="50" relative="1" as="geometry">
            <mxPoint x="1235" y="-115" as="sourcePoint" />
            <mxPoint x="1175" y="-120" as="targetPoint" />
          </mxGeometry>
        </mxCell>
        <mxCell id="etzrCaDDnZUVcSAjSshA-152" value="" style="endArrow=none;html=1;rounded=0;entryX=0;entryY=1;entryDx=0;entryDy=0;exitX=1;exitY=0;exitDx=0;exitDy=0;labelBackgroundColor=none;strokeColor=#23445D;fontColor=default;" parent="1" source="etzrCaDDnZUVcSAjSshA-46" target="etzrCaDDnZUVcSAjSshA-54" edge="1">
          <mxGeometry width="50" height="50" relative="1" as="geometry">
            <mxPoint x="1241" y="-179" as="sourcePoint" />
            <mxPoint x="1175" y="-160" as="targetPoint" />
          </mxGeometry>
        </mxCell>
        <mxCell id="etzrCaDDnZUVcSAjSshA-153" value="" style="endArrow=none;html=1;rounded=0;entryX=0.75;entryY=0;entryDx=0;entryDy=0;exitX=0.5;exitY=1;exitDx=0;exitDy=0;labelBackgroundColor=none;strokeColor=#23445D;fontColor=default;" parent="1" source="etzrCaDDnZUVcSAjSshA-136" target="etzrCaDDnZUVcSAjSshA-46" edge="1">
          <mxGeometry width="50" height="50" relative="1" as="geometry">
            <mxPoint x="1175" y="-200" as="sourcePoint" />
            <mxPoint x="1215" y="-257" as="targetPoint" />
          </mxGeometry>
        </mxCell>
        <mxCell id="etzrCaDDnZUVcSAjSshA-154" value="" style="endArrow=none;html=1;rounded=0;entryX=0.5;entryY=1;entryDx=0;entryDy=0;exitX=0.5;exitY=0;exitDx=0;exitDy=0;labelBackgroundColor=none;strokeColor=#23445D;fontColor=default;" parent="1" source="etzrCaDDnZUVcSAjSshA-46" target="etzrCaDDnZUVcSAjSshA-49" edge="1">
          <mxGeometry width="50" height="50" relative="1" as="geometry">
            <mxPoint x="1140" y="-290" as="sourcePoint" />
            <mxPoint x="1135" y="-200" as="targetPoint" />
          </mxGeometry>
        </mxCell>
        <mxCell id="etzrCaDDnZUVcSAjSshA-155" value="" style="endArrow=none;html=1;rounded=0;entryX=1;entryY=1;entryDx=0;entryDy=0;exitX=0.25;exitY=0;exitDx=0;exitDy=0;labelBackgroundColor=none;strokeColor=#23445D;fontColor=default;" parent="1" source="etzrCaDDnZUVcSAjSshA-46" target="etzrCaDDnZUVcSAjSshA-48" edge="1">
          <mxGeometry width="50" height="50" relative="1" as="geometry">
            <mxPoint x="1095" y="-200" as="sourcePoint" />
            <mxPoint x="1040" y="-290" as="targetPoint" />
          </mxGeometry>
        </mxCell>
        <mxCell id="etzrCaDDnZUVcSAjSshA-156" value="" style="endArrow=none;html=1;rounded=0;entryX=0.5;entryY=1;entryDx=0;entryDy=0;exitX=0;exitY=0.5;exitDx=0;exitDy=0;labelBackgroundColor=none;strokeColor=#23445D;fontColor=default;" parent="1" source="etzrCaDDnZUVcSAjSshA-56" target="etzrCaDDnZUVcSAjSshA-46" edge="1">
          <mxGeometry width="50" height="50" relative="1" as="geometry">
            <mxPoint x="1260" y="-25" as="sourcePoint" />
            <mxPoint x="1200" y="-30" as="targetPoint" />
          </mxGeometry>
        </mxCell>
        <mxCell id="etzrCaDDnZUVcSAjSshA-157" value="" style="endArrow=none;html=1;rounded=0;entryX=0;entryY=0.5;entryDx=0;entryDy=0;exitX=1;exitY=0.5;exitDx=0;exitDy=0;labelBackgroundColor=none;strokeColor=#23445D;fontColor=default;" parent="1" source="etzrCaDDnZUVcSAjSshA-56" target="etzrCaDDnZUVcSAjSshA-57" edge="1">
          <mxGeometry width="50" height="50" relative="1" as="geometry">
            <mxPoint x="1320" y="80" as="sourcePoint" />
            <mxPoint x="1120" y="-30" as="targetPoint" />
          </mxGeometry>
        </mxCell>
        <mxCell id="etzrCaDDnZUVcSAjSshA-158" value="" style="endArrow=none;html=1;rounded=0;entryX=0;entryY=1;entryDx=0;entryDy=0;exitX=1;exitY=0;exitDx=0;exitDy=0;labelBackgroundColor=none;strokeColor=#23445D;fontColor=default;" parent="1" source="etzrCaDDnZUVcSAjSshA-57" target="etzrCaDDnZUVcSAjSshA-61" edge="1">
          <mxGeometry width="50" height="50" relative="1" as="geometry">
            <mxPoint x="1440" y="80" as="sourcePoint" />
            <mxPoint x="1590" y="80" as="targetPoint" />
          </mxGeometry>
        </mxCell>
        <mxCell id="etzrCaDDnZUVcSAjSshA-159" value="" style="endArrow=none;html=1;rounded=0;entryX=0;entryY=0.5;entryDx=0;entryDy=0;exitX=1;exitY=0.25;exitDx=0;exitDy=0;labelBackgroundColor=none;strokeColor=#23445D;fontColor=default;" parent="1" source="etzrCaDDnZUVcSAjSshA-57" target="etzrCaDDnZUVcSAjSshA-60" edge="1">
          <mxGeometry width="50" height="50" relative="1" as="geometry">
            <mxPoint x="1750" y="40" as="sourcePoint" />
            <mxPoint x="1760" y="3" as="targetPoint" />
          </mxGeometry>
        </mxCell>
        <mxCell id="etzrCaDDnZUVcSAjSshA-160" value="" style="endArrow=none;html=1;rounded=0;entryX=0;entryY=0.5;entryDx=0;entryDy=0;exitX=1;exitY=0.75;exitDx=0;exitDy=0;labelBackgroundColor=none;strokeColor=#23445D;fontColor=default;" parent="1" source="etzrCaDDnZUVcSAjSshA-57" target="etzrCaDDnZUVcSAjSshA-59" edge="1">
          <mxGeometry width="50" height="50" relative="1" as="geometry">
            <mxPoint x="1750" y="60" as="sourcePoint" />
            <mxPoint x="1805" y="45" as="targetPoint" />
          </mxGeometry>
        </mxCell>
        <mxCell id="etzrCaDDnZUVcSAjSshA-162" value="" style="endArrow=none;html=1;rounded=0;entryX=0;entryY=0;entryDx=0;entryDy=0;exitX=1;exitY=1;exitDx=0;exitDy=0;labelBackgroundColor=none;strokeColor=#23445D;fontColor=default;" parent="1" source="etzrCaDDnZUVcSAjSshA-57" target="etzrCaDDnZUVcSAjSshA-62" edge="1">
          <mxGeometry width="50" height="50" relative="1" as="geometry">
            <mxPoint x="1750" y="100" as="sourcePoint" />
            <mxPoint x="1810" y="115" as="targetPoint" />
          </mxGeometry>
        </mxCell>
        <mxCell id="etzrCaDDnZUVcSAjSshA-163" value="" style="endArrow=none;html=1;rounded=0;entryX=1;entryY=0;entryDx=0;entryDy=0;exitX=0;exitY=1;exitDx=0;exitDy=0;labelBackgroundColor=none;strokeColor=#23445D;fontColor=default;" parent="1" source="etzrCaDDnZUVcSAjSshA-56" target="etzrCaDDnZUVcSAjSshA-63" edge="1">
          <mxGeometry width="50" height="50" relative="1" as="geometry">
            <mxPoint x="1440" y="80" as="sourcePoint" />
            <mxPoint x="1590" y="80" as="targetPoint" />
          </mxGeometry>
        </mxCell>
        <mxCell id="etzrCaDDnZUVcSAjSshA-164" value="" style="endArrow=none;html=1;rounded=0;entryX=0.5;entryY=0;entryDx=0;entryDy=0;exitX=0.5;exitY=1;exitDx=0;exitDy=0;labelBackgroundColor=none;strokeColor=#23445D;fontColor=default;" parent="1" source="etzrCaDDnZUVcSAjSshA-56" target="etzrCaDDnZUVcSAjSshA-65" edge="1">
          <mxGeometry width="50" height="50" relative="1" as="geometry">
            <mxPoint x="1350" y="100" as="sourcePoint" />
            <mxPoint x="1320" y="127" as="targetPoint" />
          </mxGeometry>
        </mxCell>
        <mxCell id="etzrCaDDnZUVcSAjSshA-165" value="" style="endArrow=none;html=1;rounded=0;entryX=0;entryY=0;entryDx=0;entryDy=0;exitX=1;exitY=1;exitDx=0;exitDy=0;labelBackgroundColor=none;strokeColor=#23445D;fontColor=default;" parent="1" source="etzrCaDDnZUVcSAjSshA-56" target="etzrCaDDnZUVcSAjSshA-66" edge="1">
          <mxGeometry width="50" height="50" relative="1" as="geometry">
            <mxPoint x="1380" y="120" as="sourcePoint" />
            <mxPoint x="1380" y="150" as="targetPoint" />
          </mxGeometry>
        </mxCell>
        <mxCell id="etzrCaDDnZUVcSAjSshA-167" value="" style="endArrow=none;html=1;rounded=0;entryX=0.5;entryY=1;entryDx=0;entryDy=0;exitX=0.5;exitY=0;exitDx=0;exitDy=0;labelBackgroundColor=none;strokeColor=#23445D;fontColor=default;" parent="1" source="etzrCaDDnZUVcSAjSshA-70" target="etzrCaDDnZUVcSAjSshA-69" edge="1">
          <mxGeometry width="50" height="50" relative="1" as="geometry">
            <mxPoint x="320" y="270" as="sourcePoint" />
            <mxPoint x="295" y="240" as="targetPoint" />
          </mxGeometry>
        </mxCell>
        <mxCell id="etzrCaDDnZUVcSAjSshA-168" value="" style="endArrow=none;html=1;rounded=0;entryX=0.5;entryY=1;entryDx=0;entryDy=0;exitX=1;exitY=0;exitDx=0;exitDy=0;labelBackgroundColor=none;strokeColor=#23445D;fontColor=default;" parent="1" source="etzrCaDDnZUVcSAjSshA-71" target="etzrCaDDnZUVcSAjSshA-70" edge="1">
          <mxGeometry width="50" height="50" relative="1" as="geometry">
            <mxPoint x="30" as="sourcePoint" />
            <mxPoint x="30" y="-110" as="targetPoint" />
          </mxGeometry>
        </mxCell>
        <mxCell id="etzrCaDDnZUVcSAjSshA-169" value="" style="endArrow=none;html=1;rounded=0;entryX=0.5;entryY=1;entryDx=0;entryDy=0;exitX=0;exitY=0.5;exitDx=0;exitDy=0;labelBackgroundColor=none;strokeColor=#23445D;fontColor=default;" parent="1" source="etzrCaDDnZUVcSAjSshA-2" target="etzrCaDDnZUVcSAjSshA-70" edge="1">
          <mxGeometry width="50" height="50" relative="1" as="geometry">
            <mxPoint x="-170" y="155" as="sourcePoint" />
            <mxPoint x="30" y="50" as="targetPoint" />
          </mxGeometry>
        </mxCell>
        <mxCell id="etzrCaDDnZUVcSAjSshA-171" value="" style="endArrow=none;html=1;rounded=0;entryX=0.5;entryY=1;entryDx=0;entryDy=0;exitX=0.5;exitY=0;exitDx=0;exitDy=0;labelBackgroundColor=none;strokeColor=#23445D;fontColor=default;" parent="1" source="etzrCaDDnZUVcSAjSshA-71" target="etzrCaDDnZUVcSAjSshA-75" edge="1">
          <mxGeometry width="50" height="50" relative="1" as="geometry">
            <mxPoint x="-170" y="155" as="sourcePoint" />
            <mxPoint x="30" y="50" as="targetPoint" />
          </mxGeometry>
        </mxCell>
        <mxCell id="etzrCaDDnZUVcSAjSshA-172" value="" style="endArrow=none;html=1;rounded=0;entryX=0.5;entryY=1;entryDx=0;entryDy=0;exitX=0.5;exitY=0;exitDx=0;exitDy=0;labelBackgroundColor=none;strokeColor=#23445D;fontColor=default;" parent="1" source="etzrCaDDnZUVcSAjSshA-75" target="etzrCaDDnZUVcSAjSshA-76" edge="1">
          <mxGeometry width="50" height="50" relative="1" as="geometry">
            <mxPoint x="-250" y="155" as="sourcePoint" />
            <mxPoint x="-250" y="25" as="targetPoint" />
          </mxGeometry>
        </mxCell>
        <mxCell id="etzrCaDDnZUVcSAjSshA-173" value="" style="endArrow=none;html=1;rounded=0;entryX=1;entryY=0.5;entryDx=0;entryDy=0;exitX=0;exitY=0.5;exitDx=0;exitDy=0;labelBackgroundColor=none;strokeColor=#23445D;fontColor=default;" parent="1" source="etzrCaDDnZUVcSAjSshA-77" target="etzrCaDDnZUVcSAjSshA-76" edge="1">
          <mxGeometry width="50" height="50" relative="1" as="geometry">
            <mxPoint x="-250" y="-75" as="sourcePoint" />
            <mxPoint x="-250" y="-310" as="targetPoint" />
          </mxGeometry>
        </mxCell>
        <mxCell id="etzrCaDDnZUVcSAjSshA-174" value="" style="endArrow=none;html=1;rounded=0;entryX=1;entryY=0.5;entryDx=0;entryDy=0;exitX=0;exitY=0.5;exitDx=0;exitDy=0;labelBackgroundColor=none;strokeColor=#23445D;fontColor=default;" parent="1" source="etzrCaDDnZUVcSAjSshA-78" target="etzrCaDDnZUVcSAjSshA-77" edge="1">
          <mxGeometry width="50" height="50" relative="1" as="geometry">
            <mxPoint x="-30" y="-360" as="sourcePoint" />
            <mxPoint x="-170" y="-350" as="targetPoint" />
          </mxGeometry>
        </mxCell>
        <mxCell id="etzrCaDDnZUVcSAjSshA-175" value="" style="endArrow=none;html=1;rounded=0;entryX=0.5;entryY=1;entryDx=0;entryDy=0;exitX=0.5;exitY=0;exitDx=0;exitDy=0;labelBackgroundColor=none;strokeColor=#23445D;fontColor=default;" parent="1" source="etzrCaDDnZUVcSAjSshA-76" target="etzrCaDDnZUVcSAjSshA-74" edge="1">
          <mxGeometry width="50" height="50" relative="1" as="geometry">
            <mxPoint x="-250" y="-75" as="sourcePoint" />
            <mxPoint x="-250" y="-310" as="targetPoint" />
          </mxGeometry>
        </mxCell>
        <mxCell id="etzrCaDDnZUVcSAjSshA-176" value="" style="endArrow=none;html=1;rounded=0;entryX=0.5;entryY=1;entryDx=0;entryDy=0;exitX=0.25;exitY=0;exitDx=0;exitDy=0;labelBackgroundColor=none;strokeColor=#23445D;fontColor=default;" parent="1" source="etzrCaDDnZUVcSAjSshA-78" target="etzrCaDDnZUVcSAjSshA-79" edge="1">
          <mxGeometry width="50" height="50" relative="1" as="geometry">
            <mxPoint x="-250" y="-390" as="sourcePoint" />
            <mxPoint x="-275" y="-440" as="targetPoint" />
          </mxGeometry>
        </mxCell>
        <mxCell id="etzrCaDDnZUVcSAjSshA-177" value="" style="endArrow=none;html=1;rounded=0;entryX=0.5;entryY=0;entryDx=0;entryDy=0;exitX=0.5;exitY=1;exitDx=0;exitDy=0;labelBackgroundColor=none;strokeColor=#23445D;fontColor=default;" parent="1" source="etzrCaDDnZUVcSAjSshA-78" target="etzrCaDDnZUVcSAjSshA-83" edge="1">
          <mxGeometry width="50" height="50" relative="1" as="geometry">
            <mxPoint x="300" y="-350" as="sourcePoint" />
            <mxPoint x="125" y="-350" as="targetPoint" />
          </mxGeometry>
        </mxCell>
        <mxCell id="etzrCaDDnZUVcSAjSshA-178" value="" style="endArrow=none;html=1;rounded=0;entryX=1;entryY=0.5;entryDx=0;entryDy=0;exitX=0;exitY=0.5;exitDx=0;exitDy=0;labelBackgroundColor=none;strokeColor=#23445D;fontColor=default;" parent="1" source="etzrCaDDnZUVcSAjSshA-46" target="etzrCaDDnZUVcSAjSshA-83" edge="1">
          <mxGeometry width="50" height="50" relative="1" as="geometry">
            <mxPoint x="380" y="-310" as="sourcePoint" />
            <mxPoint x="380" y="-210" as="targetPoint" />
          </mxGeometry>
        </mxCell>
        <mxCell id="KsNRIJIjUFE5ZsXMFkaW-2" value="Mañana" style="ellipse;whiteSpace=wrap;html=1;labelBackgroundColor=none;fillColor=#182E3E;strokeColor=#FFFFFF;fontColor=#FFFFFF;" vertex="1" parent="1">
          <mxGeometry x="160" y="110" width="70" height="50" as="geometry" />
        </mxCell>
        <mxCell id="KsNRIJIjUFE5ZsXMFkaW-3" value="Tarde" style="ellipse;whiteSpace=wrap;html=1;labelBackgroundColor=none;fillColor=#182E3E;strokeColor=#FFFFFF;fontColor=#FFFFFF;" vertex="1" parent="1">
          <mxGeometry x="240" y="70" width="70" height="50" as="geometry" />
        </mxCell>
        <mxCell id="KsNRIJIjUFE5ZsXMFkaW-4" value="Noche" style="ellipse;whiteSpace=wrap;html=1;labelBackgroundColor=none;fillColor=#182E3E;strokeColor=#FFFFFF;fontColor=#FFFFFF;" vertex="1" parent="1">
          <mxGeometry x="320" y="90" width="70" height="50" as="geometry" />
        </mxCell>
        <mxCell id="KsNRIJIjUFE5ZsXMFkaW-8" value="" style="endArrow=none;html=1;rounded=0;entryX=0.5;entryY=1;entryDx=0;entryDy=0;exitX=1;exitY=0;exitDx=0;exitDy=0;" edge="1" parent="1" source="etzrCaDDnZUVcSAjSshA-85" target="KsNRIJIjUFE5ZsXMFkaW-4">
          <mxGeometry width="50" height="50" relative="1" as="geometry">
            <mxPoint x="400" y="170" as="sourcePoint" />
            <mxPoint x="450" y="120" as="targetPoint" />
          </mxGeometry>
        </mxCell>
        <mxCell id="KsNRIJIjUFE5ZsXMFkaW-10" value="" style="endArrow=none;html=1;rounded=0;entryX=0.5;entryY=1;entryDx=0;entryDy=0;exitX=0.5;exitY=0;exitDx=0;exitDy=0;" edge="1" parent="1" source="etzrCaDDnZUVcSAjSshA-85" target="KsNRIJIjUFE5ZsXMFkaW-3">
          <mxGeometry width="50" height="50" relative="1" as="geometry">
            <mxPoint x="400" y="170" as="sourcePoint" />
            <mxPoint x="450" y="120" as="targetPoint" />
          </mxGeometry>
        </mxCell>
        <mxCell id="KsNRIJIjUFE5ZsXMFkaW-11" value="" style="endArrow=none;html=1;rounded=0;entryX=1;entryY=1;entryDx=0;entryDy=0;exitX=0;exitY=0;exitDx=0;exitDy=0;" edge="1" parent="1" source="etzrCaDDnZUVcSAjSshA-85" target="KsNRIJIjUFE5ZsXMFkaW-2">
          <mxGeometry width="50" height="50" relative="1" as="geometry">
            <mxPoint x="400" y="170" as="sourcePoint" />
            <mxPoint x="450" y="120" as="targetPoint" />
          </mxGeometry>
        </mxCell>
      </root>
    </mxGraphModel>
  </diagram>
</mxfile>
